<svg width="1889" height="423" viewBox="0 0 1889 423" fill="none" xmlns="http://www.w3.org/2000/svg">
<path fill-rule="evenodd" clip-rule="evenodd" d="M503.765 0.0269025C453.369 -0.376227 402.966 3.83423 352.577 7.08911C261.481 12.9718 170.399 18.6305 79.3422 26.8723C56.9843 28.8879 34.6784 39.205 12.6129 49.0294C7.51741 51.2541 -0.554837 68.8125 0.030107 76.4272C1.08951 90.3724 6.65949 105.019 12.0475 114.008C16.6231 121.667 23.5514 124.564 29.4788 124.773C55.1579 125.624 80.8435 125.937 106.484 124.25C159.915 120.726 213.314 114.799 266.733 111.738C359.771 106.393 452.843 102.003 545.901 98.3902C568.155 97.5242 590.409 101.914 612.682 102.735C661.532 104.586 710.388 106.781 759.237 107.02C823.217 107.334 887.229 103.362 951.19 106.079C991.805 107.841 1032.3 120.368 1072.91 124.101C1087.35 125.43 1101.95 113.888 1116.57 110.678C1122.94 109.26 1129.72 112.559 1136.04 116.247C1143.8 120.801 1151.18 132.387 1158.89 133.328C1229.23 141.809 1299.6 148.766 1369.97 155.829C1379.84 156.814 1389.73 155.993 1399.76 155.993V135.329C1410.29 138.076 1420.82 140.913 1431.35 143.69C1431.15 147.034 1430.94 150.364 1430.75 153.664C1426.46 155.634 1422.17 157.635 1417.89 159.591C1432.92 162.547 1446.79 153.664 1460.89 147.811C1464.65 146.243 1469.11 153.947 1473.27 157.441C1471.22 161.368 1469.15 165.414 1467.73 168.161C1501.55 175.149 1535.34 185.839 1569.18 187.243C1582.09 187.795 1598.09 209.549 1610.36 171.536C1612.94 163.563 1626.75 173.701 1635.28 177.03C1661.79 187.317 1688.23 198.441 1714.73 208.877C1715.33 209.116 1716.25 204.995 1716.99 202.875C1714.28 200.277 1711.59 197.605 1708.88 195.022C1713.75 187.049 1719.76 181.629 1722.39 186.302C1737.76 213.595 1755.35 217.164 1773.66 217.447C1793.38 217.716 1813.15 220.852 1832.86 220.15C1843.21 219.792 1854.23 217.91 1863.65 209.236C1872.21 201.337 1879.02 183.361 1889 165.533C1882.91 120.682 1867.24 117.188 1848.95 121.622C1832.8 125.549 1816.44 128.923 1800.25 127.595C1771.15 125.206 1742.1 118.173 1713 114.709C1644.67 106.512 1576.27 100.585 1507.95 91.2384C1428.65 80.3539 1349.48 65.1694 1270.17 54.8673C1180.16 43.2512 1090.08 33.4268 999.974 25.7375C908.645 17.9288 817.27 12.8971 725.908 8.02974C651.873 4.10298 577.806 0.653989 503.765 0.0269025ZM479.308 196.933C448.917 197.037 418.5 202.084 388.096 202.278C352.167 202.562 316.186 197.097 280.271 198.754C215.075 201.74 149.919 208.131 84.7432 213.073C84.7562 213.939 84.7562 214.73 84.7107 215.596C74.4676 215.596 63.3797 209.937 54.235 217.209C45.3764 224.271 34.6784 241.307 31.7016 259.851C27.1391 288.159 37.3756 304.568 49.4125 311.048C57.2897 315.288 65.1215 323.888 72.9793 324.008C109.818 324.56 146.669 324.172 183.488 321.649C248.203 317.184 312.865 309.405 377.567 305.718C455.15 301.283 532.889 292.325 610.303 299.506C657.944 303.896 705.669 291.384 753.439 309.525C783.779 321.022 815.489 313.526 846.582 314.512C869.005 315.258 891.454 315.333 913.877 316.901C951.827 319.499 989.738 323.694 1027.68 326.053C1057.49 327.89 1087.37 325.859 1117.13 329.308C1164.56 334.773 1211.91 344.388 1259.33 350.121C1273 351.764 1287.02 342.029 1300.57 344.866C1323.31 349.659 1345.74 361.902 1368.45 367.59C1376.04 369.486 1384.35 355.974 1391.95 357.826C1419 364.455 1446 372.906 1472.75 384.089C1496.85 394.182 1521.49 365.395 1545.72 395.197C1554.67 406.231 1568 401.363 1579.15 399.169C1598.59 395.361 1616.65 428.821 1637.58 404.006C1646.38 393.555 1660.72 399.437 1671.37 406.873C1714.73 437.137 1757.58 417.817 1800.57 405.26C1808.62 402.857 1817.12 400.154 1824.21 391.987C1829.8 385.537 1833.5 370.427 1838.06 359.184C1831.67 353.735 1825.41 344.746 1818.9 343.567C1809.52 341.91 1799.89 348.509 1790.49 347.09C1691.59 332.249 1592.79 316.154 1493.91 301.074C1384.24 284.352 1274.59 266.838 1164.87 252.43C1090.02 242.576 1015.05 237.066 940.134 230.318C879.06 224.823 817.985 220.105 756.91 215.551C668.713 208.997 580.543 201.651 492.326 197.216C487.985 197.007 483.65 196.918 479.308 196.933Z" fill="#FF5B2E"/>
</svg>
